<?xml version="1.0" encoding="UTF-8" standalone="no"?>
<!DOCTYPE svg PUBLIC "-//W3C//DTD SVG 1.1//EN"
 "http://www.w3.org/Graphics/SVG/1.1/DTD/svg11.dtd">
<!-- Generated by graphviz version 2.38.0 (20140413.2041)
 -->
<!-- Title: %3 Pages: 1 -->
<svg width="281pt" height="293pt"
 viewBox="0.00 0.00 281.00 293.00" xmlns="http://www.w3.org/2000/svg" xmlns:xlink="http://www.w3.org/1999/xlink">
<g id="graph0" class="graph" transform="scale(1 1) rotate(0) translate(4 289)">
<title>%3</title>
<polygon fill="white" stroke="none" points="-4,4 -4,-289 277,-289 277,4 -4,4"/>
<!-- retail -->
<g id="node1" class="node"><title>retail</title>
<g id="a_node1"><a xlink:href="https://github.com/Kimbahir/ServiceTree" xlink:title="&lt;TABLE&gt;">
<polygon fill="#00008b" stroke="none" points="58.5,-67 58.5,-88 164.5,-88 164.5,-67 58.5,-67"/>
<polygon fill="none" stroke="black" points="58.5,-67 58.5,-88 164.5,-88 164.5,-67 58.5,-67"/>
<text text-anchor="start" x="61.5" y="-73.8" font-family="Times New Roman,serif" font-size="14.00" fill="white">Retail Application</text>
<polygon fill="#98f5ff" stroke="none" points="58.5,-46 58.5,-67 164.5,-67 164.5,-46 58.5,-46"/>
<polygon fill="none" stroke="black" points="58.5,-46 58.5,-67 164.5,-67 164.5,-46 58.5,-46"/>
<text text-anchor="start" x="94" y="-52.8" font-family="Times New Roman,serif" font-size="14.00">app01</text>
<polygon fill="#98f5ff" stroke="none" points="58.5,-25 58.5,-46 164.5,-46 164.5,-25 58.5,-25"/>
<polygon fill="none" stroke="black" points="58.5,-25 58.5,-46 164.5,-46 164.5,-25 58.5,-25"/>
<text text-anchor="start" x="94" y="-31.8" font-family="Times New Roman,serif" font-size="14.00">app02</text>
<polygon fill="#98f5ff" stroke="none" points="58.5,-4 58.5,-25 164.5,-25 164.5,-4 58.5,-4"/>
<polygon fill="none" stroke="black" points="58.5,-4 58.5,-25 164.5,-25 164.5,-4 58.5,-4"/>
<text text-anchor="start" x="94" y="-10.8" font-family="Times New Roman,serif" font-size="14.00">app03</text>
</a>
</g>
</g>
<!-- fileservice -->
<g id="node2" class="node"><title>fileservice</title>
<g id="a_node2"><a xlink:href="https://github.com/Kimbahir/ServiceTree" xlink:title="&lt;TABLE&gt;">
<polygon fill="#1e90ff" stroke="none" points="8.5,-173.5 8.5,-194.5 75.5,-194.5 75.5,-173.5 8.5,-173.5"/>
<polygon fill="none" stroke="black" points="8.5,-173.5 8.5,-194.5 75.5,-194.5 75.5,-173.5 8.5,-173.5"/>
<text text-anchor="start" x="11.5" y="-180.3" font-family="Times New Roman,serif" font-size="14.00" fill="white">File cluster</text>
<polygon fill="azure" stroke="none" points="8.5,-152.5 8.5,-173.5 75.5,-173.5 75.5,-152.5 8.5,-152.5"/>
<polygon fill="none" stroke="black" points="8.5,-152.5 8.5,-173.5 75.5,-173.5 75.5,-152.5 8.5,-152.5"/>
<text text-anchor="start" x="26.5" y="-159.3" font-family="Times New Roman,serif" font-size="14.00">file01</text>
<polygon fill="azure" stroke="none" points="8.5,-131.5 8.5,-152.5 75.5,-152.5 75.5,-131.5 8.5,-131.5"/>
<polygon fill="none" stroke="black" points="8.5,-131.5 8.5,-152.5 75.5,-152.5 75.5,-131.5 8.5,-131.5"/>
<text text-anchor="start" x="26.5" y="-138.3" font-family="Times New Roman,serif" font-size="14.00">file02</text>
</a>
</g>
</g>
<!-- fileservice&#45;&gt;retail -->
<g id="edge4" class="edge"><title>fileservice&#45;&gt;retail</title>
<path fill="none" stroke="blue" stroke-width="3" d="M62.5023,-127.846C67.6294,-119.387 73.2362,-110.135 78.7672,-101.009"/>
<polygon fill="blue" stroke="blue" stroke-width="3" points="81.8389,-102.694 84.0288,-92.3275 75.8525,-99.0654 81.8389,-102.694"/>
</g>
<!-- batchservice -->
<g id="node3" class="node"><title>batchservice</title>
<g id="a_node3"><a xlink:href="https://github.com/Kimbahir/ServiceTree" xlink:title="&lt;TABLE&gt;">
<polygon fill="grey" stroke="none" points="168.5,-260 168.5,-281 244.5,-281 244.5,-260 168.5,-260"/>
<polygon fill="none" stroke="black" points="168.5,-260 168.5,-281 244.5,-281 244.5,-260 168.5,-260"/>
<text text-anchor="start" x="171.5" y="-266.8" font-family="Times New Roman,serif" font-size="14.00" fill="white">Batch server</text>
<polygon fill="white" stroke="none" points="168.5,-239 168.5,-260 244.5,-260 244.5,-239 168.5,-239"/>
<polygon fill="none" stroke="black" points="168.5,-239 168.5,-260 244.5,-260 244.5,-239 168.5,-239"/>
<text text-anchor="start" x="184" y="-245.8" font-family="Times New Roman,serif" font-size="14.00">batch01</text>
</a>
</g>
</g>
<!-- batchservice&#45;&gt;retail -->
<g id="edge5" class="edge"><title>batchservice&#45;&gt;retail</title>
<path fill="none" stroke="black" d="M164.234,-234.752C151.36,-225.258 138.509,-213.204 130.5,-199 114.011,-169.758 109.164,-132.397 108.486,-102.034"/>
<polygon fill="black" stroke="black" points="111.986,-101.998 108.406,-92.027 104.986,-102.055 111.986,-101.998"/>
</g>
<!-- dbcluster -->
<g id="node4" class="node"><title>dbcluster</title>
<g id="a_node4"><a xlink:href="https://github.com/Kimbahir/ServiceTree" xlink:title="&lt;TABLE&gt;">
<polygon fill="blue" stroke="none" points="148.5,-173.5 148.5,-194.5 265.5,-194.5 265.5,-173.5 148.5,-173.5"/>
<polygon fill="none" stroke="black" points="148.5,-173.5 148.5,-194.5 265.5,-194.5 265.5,-173.5 148.5,-173.5"/>
<text text-anchor="start" x="151.5" y="-180.3" font-family="Times New Roman,serif" font-size="14.00" fill="white">SQL Server Cluster</text>
<polygon fill="#e0eeee" stroke="none" points="148.5,-152.5 148.5,-173.5 265.5,-173.5 265.5,-152.5 148.5,-152.5"/>
<polygon fill="none" stroke="black" points="148.5,-152.5 148.5,-173.5 265.5,-173.5 265.5,-152.5 148.5,-152.5"/>
<text text-anchor="start" x="192.5" y="-159.3" font-family="Times New Roman,serif" font-size="14.00">db01</text>
<polygon fill="#e0eeee" stroke="none" points="148.5,-131.5 148.5,-152.5 265.5,-152.5 265.5,-131.5 148.5,-131.5"/>
<polygon fill="none" stroke="black" points="148.5,-131.5 148.5,-152.5 265.5,-152.5 265.5,-131.5 148.5,-131.5"/>
<text text-anchor="start" x="192.5" y="-138.3" font-family="Times New Roman,serif" font-size="14.00">db02</text>
</a>
</g>
</g>
<!-- batchservice&#45;&gt;dbcluster -->
<g id="edge2" class="edge"><title>batchservice&#45;&gt;dbcluster</title>
<path fill="none" stroke="blue" stroke-width="3" d="M200.512,-234.664C199.95,-226.881 199.699,-218.004 199.758,-209.243"/>
<polygon fill="blue" stroke="blue" stroke-width="3" points="203.261,-209.154 199.97,-199.083 196.263,-209.007 203.261,-209.154"/>
</g>
<!-- dbcluster&#45;&gt;retail -->
<g id="edge1" class="edge"><title>dbcluster&#45;&gt;retail</title>
<path fill="none" stroke="blue" stroke-width="3" d="M177.997,-127.846C170.824,-119.125 162.958,-109.562 155.227,-100.163"/>
<polygon fill="blue" stroke="blue" stroke-width="3" points="157.838,-97.8273 148.782,-92.3275 152.432,-102.274 157.838,-97.8273"/>
</g>
<!-- dbcluster&#45;&gt;batchservice -->
<g id="edge3" class="edge"><title>dbcluster&#45;&gt;batchservice</title>
<path fill="none" stroke="blue" stroke-width="3" d="M213.03,-199.083C213.325,-207.384 213.323,-216.249 213.025,-224.545"/>
<polygon fill="blue" stroke="blue" stroke-width="3" points="209.523,-224.492 212.488,-234.664 216.513,-224.863 209.523,-224.492"/>
</g>
</g>
</svg>
