<?xml version="1.0" encoding="UTF-8" standalone="no"?>
<!DOCTYPE svg PUBLIC "-//W3C//DTD SVG 1.1//EN"
 "http://www.w3.org/Graphics/SVG/1.1/DTD/svg11.dtd">
<!-- Generated by graphviz version 2.38.0 (20140413.2041)
 -->
<!-- Title: %3 Pages: 1 -->
<svg width="240pt" height="314pt"
 viewBox="0.00 0.00 239.50 314.00" xmlns="http://www.w3.org/2000/svg" xmlns:xlink="http://www.w3.org/1999/xlink">
<g id="graph0" class="graph" transform="scale(1 1) rotate(0) translate(4 310)">
<title>%3</title>
<polygon fill="white" stroke="none" points="-4,4 -4,-310 235.5,-310 235.5,4 -4,4"/>
<!-- retail -->
<g id="node1" class="node"><title>retail</title>
<g id="a_node1"><a xlink:href="https://github.com/Kimbahir/ServiceTree" xlink:title="&lt;TABLE&gt;">
<polygon fill="#00008b" stroke="none" points="28.5,-67 28.5,-88 194.5,-88 194.5,-67 28.5,-67"/>
<polygon fill="none" stroke="black" points="28.5,-67 28.5,-88 194.5,-88 194.5,-67 28.5,-67"/>
<text text-anchor="start" x="31.5" y="-73.8" font-family="Times New Roman,serif" font-size="14.00" fill="white">Retail Awesome Application</text>
<polygon fill="#98f5ff" stroke="none" points="28.5,-46 28.5,-67 194.5,-67 194.5,-46 28.5,-46"/>
<polygon fill="none" stroke="black" points="28.5,-46 28.5,-67 194.5,-67 194.5,-46 28.5,-46"/>
<text text-anchor="start" x="94" y="-52.8" font-family="Times New Roman,serif" font-size="14.00">app01</text>
<polygon fill="#98f5ff" stroke="none" points="28.5,-25 28.5,-46 194.5,-46 194.5,-25 28.5,-25"/>
<polygon fill="none" stroke="black" points="28.5,-25 28.5,-46 194.5,-46 194.5,-25 28.5,-25"/>
<text text-anchor="start" x="94" y="-31.8" font-family="Times New Roman,serif" font-size="14.00">app02</text>
<polygon fill="#98f5ff" stroke="none" points="28.5,-4 28.5,-25 194.5,-25 194.5,-4 28.5,-4"/>
<polygon fill="none" stroke="black" points="28.5,-4 28.5,-25 194.5,-25 194.5,-4 28.5,-4"/>
<text text-anchor="start" x="94" y="-10.8" font-family="Times New Roman,serif" font-size="14.00">app03</text>
</a>
</g>
</g>
<!-- fileservice -->
<g id="node2" class="node"><title>fileservice</title>
<g id="a_node2"><a xlink:href="https://github.com/Kimbahir/ServiceTree" xlink:title="&lt;TABLE&gt;">
<polygon fill="#1e90ff" stroke="none" points="8.5,-173.5 8.5,-194.5 75.5,-194.5 75.5,-173.5 8.5,-173.5"/>
<polygon fill="none" stroke="black" points="8.5,-173.5 8.5,-194.5 75.5,-194.5 75.5,-173.5 8.5,-173.5"/>
<text text-anchor="start" x="11.5" y="-180.3" font-family="Times New Roman,serif" font-size="14.00" fill="white">File cluster</text>
<polygon fill="azure" stroke="none" points="8.5,-152.5 8.5,-173.5 75.5,-173.5 75.5,-152.5 8.5,-152.5"/>
<polygon fill="none" stroke="black" points="8.5,-152.5 8.5,-173.5 75.5,-173.5 75.5,-152.5 8.5,-152.5"/>
<text text-anchor="start" x="26.5" y="-159.3" font-family="Times New Roman,serif" font-size="14.00">file01</text>
<polygon fill="azure" stroke="none" points="8.5,-131.5 8.5,-152.5 75.5,-152.5 75.5,-131.5 8.5,-131.5"/>
<polygon fill="none" stroke="black" points="8.5,-131.5 8.5,-152.5 75.5,-152.5 75.5,-131.5 8.5,-131.5"/>
<text text-anchor="start" x="26.5" y="-138.3" font-family="Times New Roman,serif" font-size="14.00">file02</text>
</a>
</g>
</g>
<!-- fileservice&#45;&gt;retail -->
<g id="edge3" class="edge"><title>fileservice&#45;&gt;retail</title>
<path fill="none" stroke="blue" stroke-width="3" d="M62.5023,-127.846C67.6294,-119.387 73.2362,-110.135 78.7672,-101.009"/>
<polygon fill="blue" stroke="blue" stroke-width="3" points="81.8389,-102.694 84.0288,-92.3275 75.8525,-99.0654 81.8389,-102.694"/>
</g>
<!-- batchservice -->
<g id="node3" class="node"><title>batchservice</title>
<g id="a_node3"><a xlink:href="https://github.com/Kimbahir/ServiceTree" xlink:title="&lt;TABLE&gt;">
<polygon fill="grey" stroke="none" points="147.5,-163.5 147.5,-184.5 223.5,-184.5 223.5,-163.5 147.5,-163.5"/>
<polygon fill="none" stroke="black" points="147.5,-163.5 147.5,-184.5 223.5,-184.5 223.5,-163.5 147.5,-163.5"/>
<text text-anchor="start" x="150.5" y="-170.3" font-family="Times New Roman,serif" font-size="14.00" fill="white">Batch server</text>
<polygon fill="white" stroke="none" points="147.5,-142.5 147.5,-163.5 223.5,-163.5 223.5,-142.5 147.5,-142.5"/>
<polygon fill="none" stroke="black" points="147.5,-142.5 147.5,-163.5 223.5,-163.5 223.5,-142.5 147.5,-142.5"/>
<text text-anchor="start" x="163" y="-149.3" font-family="Times New Roman,serif" font-size="14.00">batch01</text>
</a>
</g>
</g>
<!-- batchservice&#45;&gt;retail -->
<g id="edge4" class="edge"><title>batchservice&#45;&gt;retail</title>
<path fill="none" stroke="black" d="M169.987,-138.287C162.964,-127.326 154.361,-113.898 145.936,-100.749"/>
<polygon fill="black" stroke="black" points="148.786,-98.7081 140.444,-92.1761 142.892,-102.484 148.786,-98.7081"/>
</g>
<!-- dbcluster -->
<g id="node4" class="node"><title>dbcluster</title>
<g id="a_node4"><a xlink:href="https://github.com/Kimbahir/ServiceTree" xlink:title="&lt;TABLE&gt;">
<polygon fill="blue" stroke="none" points="90.5,-280.5 90.5,-301.5 207.5,-301.5 207.5,-280.5 90.5,-280.5"/>
<polygon fill="none" stroke="black" points="90.5,-280.5 90.5,-301.5 207.5,-301.5 207.5,-280.5 90.5,-280.5"/>
<text text-anchor="start" x="93.5" y="-287.3" font-family="Times New Roman,serif" font-size="14.00" fill="white">SQL Server Cluster</text>
<polygon fill="#e0eeee" stroke="none" points="90.5,-259.5 90.5,-280.5 207.5,-280.5 207.5,-259.5 90.5,-259.5"/>
<polygon fill="none" stroke="black" points="90.5,-259.5 90.5,-280.5 207.5,-280.5 207.5,-259.5 90.5,-259.5"/>
<text text-anchor="start" x="134.5" y="-266.3" font-family="Times New Roman,serif" font-size="14.00">db01</text>
<polygon fill="#e0eeee" stroke="none" points="90.5,-238.5 90.5,-259.5 207.5,-259.5 207.5,-238.5 90.5,-238.5"/>
<polygon fill="none" stroke="black" points="90.5,-238.5 90.5,-259.5 207.5,-259.5 207.5,-238.5 90.5,-238.5"/>
<text text-anchor="start" x="134.5" y="-245.3" font-family="Times New Roman,serif" font-size="14.00">db02</text>
</a>
</g>
</g>
<!-- dbcluster&#45;&gt;retail -->
<g id="edge1" class="edge"><title>dbcluster&#45;&gt;retail</title>
<path fill="none" stroke="blue" stroke-width="3" d="M138.746,-234.911C135.788,-223.539 132.733,-210.791 130.5,-199 124.484,-167.234 119.897,-131.36 116.739,-102.443"/>
<polygon fill="blue" stroke="blue" stroke-width="3" points="120.179,-101.698 115.64,-92.1253 113.218,-102.44 120.179,-101.698"/>
</g>
<!-- dbcluster&#45;&gt;batchservice -->
<g id="edge2" class="edge"><title>dbcluster&#45;&gt;batchservice</title>
<path fill="none" stroke="blue" stroke-width="3" d="M160.718,-234.828C164.895,-222.974 169.557,-209.745 173.7,-197.987"/>
<polygon fill="blue" stroke="blue" stroke-width="3" points="177.014,-199.113 177.036,-188.518 170.412,-196.786 177.014,-199.113"/>
</g>
</g>
</svg>
